<svg width="55" height="54" viewBox="0 0 55 54" fill="none" xmlns="http://www.w3.org/2000/svg">
<path d="M22.8619 31.4523C26.2332 34.8723 30.3125 37.5128 34.8131 39.1882L40.9017 34.3432C41.0822 34.2189 41.2962 34.1523 41.5154 34.1523C41.7346 34.1523 41.9486 34.2189 42.1291 34.3432L53.4343 41.6268C53.8635 41.8849 54.2268 42.2391 54.4955 42.6617C54.7642 43.0843 54.931 43.5635 54.9827 44.0616C55.0344 44.5597 54.9696 45.063 54.7933 45.5318C54.6171 46.0005 54.3343 46.4218 53.9672 46.7625L48.6699 51.9951C47.9113 52.7447 46.9789 53.2947 45.956 53.5963C44.933 53.8978 43.8513 53.9414 42.8074 53.7231C32.3941 51.5725 22.7959 46.5356 15.1098 39.1882C7.59427 31.7677 2.39356 22.3258 0.138546 12.0078C-0.0842204 10.9801 -0.037726 9.91224 0.273523 8.90777C0.584772 7.9033 1.15022 6.99627 1.91507 6.27456L7.40614 0.977377C7.74594 0.628194 8.16033 0.360408 8.61829 0.194068C9.07625 0.0277281 9.56591 -0.0328546 10.0506 0.0168564C10.5353 0.0665673 11.0024 0.225284 11.4171 0.481121C11.8318 0.736959 12.1832 1.08329 12.445 1.49418L19.971 12.6538C20.1008 12.829 20.1709 13.0413 20.1709 13.2594C20.1709 13.4775 20.1008 13.6898 19.971 13.865L15.0129 19.8244C16.7338 24.2348 19.415 28.2069 22.8619 31.4523Z" fill="#89C4E8"/>
</svg>
